#define AM_width 11
#define AM_height 8
static unsigned char AM_bits[] = {
   0x20, 0x00, 0xa8, 0x00, 0xa8, 0x00, 0xac, 0x01, 0xac, 0x01, 0xae, 0x03,
   0xae, 0x03, 0xaf, 0x07 };
