#define free_icon_headphone_symbol_27130_width 10
#define free_icon_headphone_symbol_27130_height 10
static unsigned char free_icon_headphone_symbol_27130_bits[] = {
   0x00, 0x00, 0x78, 0x00, 0x84, 0x00, 0x02, 0x01, 0x02, 0x01, 0x87, 0x03,
   0x87, 0x03, 0x87, 0x03, 0x87, 0x03, 0x00, 0x00 };
