#define Headphones_width 10
#define Headphones_height 8
static unsigned char Headphones_bits[] = {
   0x78, 0x00, 0x84, 0x00, 0x02, 0x01, 0x02, 0x01, 0x87, 0x03, 0x87, 0x03,
   0x87, 0x03, 0x87, 0x03 };
