#define 1_width 22
#define 1_height 8
static unsigned char 1_bits[] = {
   0x40, 0x00, 0x0e, 0x60, 0x21, 0x1f, 0x70, 0x12, 0x11, 0x7a, 0x0c, 0x11,
   0x7a, 0x0c, 0x11, 0x70, 0x12, 0x11, 0x60, 0x21, 0x15, 0x40, 0x00, 0x1f };
