#define _3ELSB_width 11
#define _3ELSB_height 8
static unsigned char _3ELSB_bits[] = {
   0x00, 0x00, 0x28, 0x00, 0x08, 0x00, 0x2c, 0x00, 0x0c, 0x00, 0x2e, 0x00,
   0x0e, 0x00, 0x2f, 0x00 };
