#define Speaker_Active_width 14
#define Speaker_Active_height 8
static unsigned char Speaker_Active_bits[] = {
   0x20, 0x08, 0x30, 0x10, 0x3b, 0x22, 0xbd, 0x24, 0xbd, 0x24, 0x3b, 0x22,
   0x30, 0x10, 0x20, 0x08 };
