#define Speaker_OFF_width 10
#define Speaker_OFF_height 10
static unsigned char Speaker_OFF_bits[] = {
   0x01, 0x02, 0x42, 0x01, 0x64, 0x00, 0x50, 0x00, 0x56, 0x00, 0x5e, 0x00,
   0x56, 0x00, 0x50, 0x00, 0x62, 0x01, 0x41, 0x02 };
