#define USB_width 11
#define USB_height 8
static unsigned char USB_bits[] = {
   0x00, 0x00, 0xa0, 0x00, 0x80, 0x00, 0xa0, 0x01, 0x80, 0x01, 0xa0, 0x03,
   0x80, 0x03, 0xa0, 0x07 };
